<?xml version="1.0" encoding="UTF-8"?>
<svg width="77px" height="77px" viewBox="0 0 77 77" version="1.1" xmlns="http://www.w3.org/2000/svg" xmlns:xlink="http://www.w3.org/1999/xlink">
    <!-- Generator: Sketch 52.6 (67491) - http://www.bohemiancoding.com/sketch -->
    <title>Combined Shape 2</title>
    <desc>Created with Sketch.</desc>
    <g id="Product-Page" stroke="none" stroke-width="1" fill="none" fill-rule="evenodd">
        <g id="WordPress-plugins" transform="translate(-190.000000, -1470.000000)" fill="#FFBE66">
            <g id="Combined-Shape-2" transform="translate(190.000000, 1470.000000)">
                <path d="M38.5,77 C17.2370371,77 0,59.7629629 0,38.5 C0,17.2370371 17.2370371,0 38.5,0 C59.7629629,0 77,17.2370371 77,38.5 C77,59.7629629 59.7629629,77 38.5,77 Z M54.625,20 L22.375,20 C19.4103516,20 17,22.4102107 17,25.3746858 L17,49.560772 C17,52.5252471 19.4103516,54.9354578 22.375,54.9354578 L30.4375,54.9354578 L30.4375,61.989733 C30.4375,62.8127317 31.378125,63.2914147 32.0416016,62.8043338 L42.53125,54.9354578 L54.625,54.9354578 C57.5896484,54.9354578 60,52.5252471 60,49.560772 L60,25.3746858 C60,22.4102107 57.5896484,20 54.625,20 Z M37.588039,30.5565773 C37.9629916,29.8097947 39.040186,29.8191685 39.411961,30.5565773 L41.4869106,34.6935657 L46.1293323,35.3591084 C46.9618541,35.4778437 47.2954984,36.4870939 46.6917612,37.0651474 L43.3330755,40.2834994 L44.1274666,44.8298122 C44.270457,45.6515856 43.3902717,46.2640098 42.6530767,45.882807 L38.5,43.7361974 L34.3469233,45.882807 C33.6097283,46.2671344 32.729543,45.6515856 32.8725334,44.8298122 L33.6669245,40.2834994 L30.3082388,37.0651474 C29.7045016,36.4870939 30.0381459,35.4778437 30.8706677,35.3591084 L35.5130894,34.6935657 L37.588039,30.5565773 Z" id="Combined-Shape"></path>
            </g>
        </g>
    </g>
</svg>